<svg width="26" height="26" viewBox="0 0 26 26" fill="none" xmlns="http://www.w3.org/2000/svg">
    <path
        d="M0 4.0625C0 3.84701 0.0856024 3.64035 0.237976 3.48798C0.390349 3.3356 0.597012 3.25 0.8125 3.25H3.25C3.43124 3.25005 3.60726 3.31069 3.75006 3.42229C3.89287 3.53389 3.99427 3.69002 4.03813 3.86587L4.69625 6.5H23.5625C23.6859 6.50003 23.8077 6.52818 23.9186 6.58231C24.0295 6.63644 24.1267 6.71512 24.2026 6.81239C24.2786 6.90966 24.3314 7.02295 24.357 7.14367C24.3827 7.2644 24.3805 7.38938 24.3506 7.50912L21.9131 17.2591C21.8693 17.435 21.7679 17.5911 21.6251 17.7027C21.4823 17.8143 21.3062 17.8749 21.125 17.875H6.5C6.31876 17.8749 6.14274 17.8143 5.99994 17.7027C5.85713 17.5911 5.75573 17.435 5.71187 17.2591L2.61625 4.875H0.8125C0.597012 4.875 0.390349 4.7894 0.237976 4.63702C0.0856024 4.48465 0 4.27799 0 4.0625ZM5.1025 8.125L5.915 11.375H8.125V8.125H5.1025ZM9.75 8.125V11.375H13V8.125H9.75ZM14.625 8.125V11.375H17.875V8.125H14.625ZM19.5 8.125V11.375H21.71L22.5225 8.125H19.5ZM21.3037 13H19.5V16.25H20.4912L21.3037 13ZM17.875 13H14.625V16.25H17.875V13ZM13 13H9.75V16.25H13V13ZM8.125 13H6.32125L7.13375 16.25H8.125V13ZM8.125 21.125C7.69402 21.125 7.2807 21.2962 6.97595 21.601C6.67121 21.9057 6.5 22.319 6.5 22.75C6.5 23.181 6.67121 23.5943 6.97595 23.899C7.2807 24.2038 7.69402 24.375 8.125 24.375C8.55598 24.375 8.9693 24.2038 9.27405 23.899C9.57879 23.5943 9.75 23.181 9.75 22.75C9.75 22.319 9.57879 21.9057 9.27405 21.601C8.9693 21.2962 8.55598 21.125 8.125 21.125ZM4.875 22.75C4.875 21.888 5.21741 21.0614 5.8269 20.4519C6.4364 19.8424 7.26305 19.5 8.125 19.5C8.98695 19.5 9.8136 19.8424 10.4231 20.4519C11.0326 21.0614 11.375 21.888 11.375 22.75C11.375 23.612 11.0326 24.4386 10.4231 25.0481C9.8136 25.6576 8.98695 26 8.125 26C7.26305 26 6.4364 25.6576 5.8269 25.0481C5.21741 24.4386 4.875 23.612 4.875 22.75ZM19.5 21.125C19.069 21.125 18.6557 21.2962 18.351 21.601C18.0462 21.9057 17.875 22.319 17.875 22.75C17.875 23.181 18.0462 23.5943 18.351 23.899C18.6557 24.2038 19.069 24.375 19.5 24.375C19.931 24.375 20.3443 24.2038 20.649 23.899C20.9538 23.5943 21.125 23.181 21.125 22.75C21.125 22.319 20.9538 21.9057 20.649 21.601C20.3443 21.2962 19.931 21.125 19.5 21.125ZM16.25 22.75C16.25 21.888 16.5924 21.0614 17.2019 20.4519C17.8114 19.8424 18.638 19.5 19.5 19.5C20.362 19.5 21.1886 19.8424 21.7981 20.4519C22.4076 21.0614 22.75 21.888 22.75 22.75C22.75 23.612 22.4076 24.4386 21.7981 25.0481C21.1886 25.6576 20.362 26 19.5 26C18.638 26 17.8114 25.6576 17.2019 25.0481C16.5924 24.4386 16.25 23.612 16.25 22.75Z"
        fill="white" />
</svg>