<svg width="50" height="50" viewBox="0 0 50 50" fill="none" xmlns="http://www.w3.org/2000/svg">
    <path
        d="M25.0003 45.8334C36.5065 45.8334 45.8336 36.5063 45.8336 25.0001C45.8336 13.4938 36.5065 4.16675 25.0003 4.16675C13.494 4.16675 4.16693 13.4938 4.16693 25.0001C4.16693 36.5063 13.494 45.8334 25.0003 45.8334Z"
        stroke="white" stroke-width="1.5" stroke-linecap="round" stroke-linejoin="round" />
    <path
        d="M31.2499 17.7085C29.8229 16.2814 27.3104 15.2897 24.9999 15.2272M24.9999 15.2272C22.2499 15.1522 19.7916 16.396 19.7916 19.7918C19.7916 26.0418 31.2499 22.9168 31.2499 29.1668C31.2499 32.7314 28.1999 34.2627 24.9999 34.1481M24.9999 15.2272V11.4585M18.7499 31.2502C20.0916 33.0418 22.5895 34.0627 24.9999 34.1481M24.9999 34.1481V38.5418"
        stroke="white" stroke-width="1.5" stroke-linecap="round" stroke-linejoin="round" />
</svg>