<svg width="50" height="50" viewBox="0 0 50 50" fill="none" xmlns="http://www.w3.org/2000/svg">
    <path
        d="M7.35456 23.8959V28.3084C7.35429 29.4672 7.5823 30.6147 8.02557 31.6854C8.46884 32.7561 9.11869 33.729 9.938 34.5485C10.7573 35.368 11.73 36.018 12.8006 36.4616C13.8712 36.9051 15.0187 37.1334 16.1775 37.1334H42.6462M7.35456 12.8667H33.8233C34.9823 12.8664 36.13 13.0945 37.2008 13.5379C38.2716 13.9813 39.2446 14.6313 40.0641 15.4509C40.8837 16.2704 41.5337 17.2434 41.9771 18.3142C42.4205 19.385 42.6486 20.5327 42.6483 21.6917V26.1021"
        stroke="white" stroke-width="1.5" stroke-linecap="round" stroke-linejoin="round" />
    <path d="M36.0296 30.5146L42.6483 37.1312L36.0296 43.75M13.9712 19.4854L7.35248 12.8667L13.9712 6.25" stroke="white"
        stroke-width="1.5" stroke-linecap="round" stroke-linejoin="round" />
</svg>