<svg width="48" height="48" viewBox="0 0 48 48" fill="none" xmlns="http://www.w3.org/2000/svg">
    <rect width="48" height="48" rx="10" fill="#05F691" fill-opacity="0.15" />
    <path fill-rule="evenodd" clip-rule="evenodd"
        d="M23.9998 9.30023C24.4175 9.30023 24.8181 9.46616 25.1134 9.76154C25.4088 10.0569 25.5748 10.4575 25.5748 10.8752L25.5748 33.215L33.8908 24.4832C34.0324 24.3271 34.2039 24.201 34.3951 24.1124C34.5864 24.0238 34.7935 23.9744 35.0041 23.9673C35.2148 23.9602 35.4248 23.9954 35.6216 24.0709C35.8183 24.1464 35.998 24.2607 36.1498 24.4069C36.3016 24.5531 36.4226 24.7283 36.5055 24.9221C36.5883 25.1159 36.6315 25.3244 36.6323 25.5352C36.6332 25.746 36.5917 25.9548 36.5103 26.1492C36.429 26.3437 36.3094 26.5198 36.1588 26.6672L25.1338 38.2172C24.9868 38.3697 24.8107 38.4909 24.6158 38.5737C24.421 38.6565 24.2115 38.6992 23.9998 38.6992C23.788 38.6992 23.5785 38.6565 23.3837 38.5737C23.1888 38.4909 23.0127 38.3697 22.8658 38.2172L11.8408 26.6672C11.6901 26.5198 11.5705 26.3437 11.4892 26.1492C11.4078 25.9548 11.3664 25.746 11.3672 25.5352C11.368 25.3244 11.4112 25.1159 11.494 24.9221C11.5769 24.7283 11.6979 24.5531 11.8497 24.4069C12.0015 24.2607 12.1812 24.1464 12.378 24.0709C12.5748 23.9954 12.7847 23.9602 12.9954 23.9673C13.206 23.9744 13.4131 24.0238 13.6044 24.1124C13.7956 24.201 13.9671 24.3271 14.1088 24.4832L22.4248 33.215L22.4248 10.8752C22.4248 10.4575 22.5907 10.0569 22.8861 9.76154C23.1814 9.46617 23.582 9.30023 23.9998 9.30023Z"
        fill="#05F691" />
</svg>