<svg width="52" height="20" viewBox="0 0 52 20" fill="none" xmlns="http://www.w3.org/2000/svg">
    <path
        d="M42.704 0.299861C42.6111 0.205125 42.5003 0.129822 42.378 0.0783411C42.2557 0.0268599 42.1244 0.000229396 41.9917 1.04338e-06C41.859 -0.000227309 41.7276 0.0259512 41.6052 0.0770112C41.4827 0.128071 41.3716 0.202992 41.2784 0.297408C41.1852 0.391824 41.1117 0.503848 41.0622 0.626952C41.0127 0.750057 40.9882 0.881781 40.9901 1.01445C40.992 1.14712 41.0203 1.27808 41.0733 1.3997C41.1264 1.52132 41.2031 1.63118 41.299 1.72286L48.675 9.01186L0.999996 9.01186C0.734779 9.01186 0.480426 9.11722 0.292888 9.30475C0.10535 9.49229 -4.24074e-06 9.74664 -4.25233e-06 10.0119C-4.26392e-06 10.2771 0.10535 10.5314 0.292888 10.719C0.480426 10.9065 0.734779 11.0119 0.999996 11.0119L48.673 11.0119L41.299 18.2979C41.1153 18.4852 41.0126 18.7373 41.013 18.9997C41.0135 19.2621 41.117 19.5139 41.3014 19.7006C41.4858 19.8873 41.7362 19.9941 41.9986 19.9979C42.2609 20.0017 42.5143 19.9022 42.704 19.7209L51.633 10.8999C51.7506 10.7836 51.844 10.6452 51.9077 10.4926C51.9714 10.34 52.0043 10.1762 52.0043 10.0109C52.0043 9.84549 51.9714 9.68176 51.9077 9.52916C51.844 9.37656 51.7506 9.23812 51.633 9.12186L42.704 0.299861Z"
        fill="white" fill-opacity="0.5" />
</svg>