<svg width="38" height="38" viewBox="0 0 38 38" fill="none" xmlns="http://www.w3.org/2000/svg">
    <path
        d="M33.2503 33.2503L26.3739 26.3739M26.3739 26.3739C27.5501 25.1977 28.4832 23.8013 29.1198 22.2644C29.7563 20.7276 30.084 19.0804 30.084 17.417C30.084 15.7535 29.7563 14.1064 29.1198 12.5695C28.4832 11.0327 27.5501 9.63632 26.3739 8.46008C25.1977 7.28384 23.8013 6.35079 22.2644 5.71422C20.7276 5.07764 19.0804 4.75 17.417 4.75C15.7535 4.75 14.1064 5.07764 12.5695 5.71422C11.0327 6.35079 9.63632 7.28384 8.46008 8.46008C6.08455 10.8356 4.75 14.0575 4.75 17.417C4.75 20.7765 6.08455 23.9984 8.46008 26.3739C10.8356 28.7494 14.0575 30.084 17.417 30.084C20.7765 30.084 23.9984 28.7494 26.3739 26.3739Z"
        stroke="white" stroke-opacity="0.5" stroke-width="1.5" stroke-linecap="round" stroke-linejoin="round" />
</svg>