<svg width="40" height="40" viewBox="0 0 40 40" fill="none" xmlns="http://www.w3.org/2000/svg">
    <path
        d="M26.6291 26.6292C25.7586 27.4997 24.7251 28.1903 23.5876 28.6614C22.4502 29.1326 21.2311 29.3751 19.9999 29.3751C18.7688 29.3751 17.5497 29.1326 16.4123 28.6614C15.2748 28.1903 14.2413 27.4997 13.3708 26.6292M38.7499 20C38.7499 22.4623 38.265 24.9005 37.3227 27.1753C36.3804 29.4502 34.9993 31.5172 33.2582 33.2582C31.5171 34.9993 29.4501 36.3805 27.1753 37.3227C24.9004 38.265 22.4622 38.75 19.9999 38.75C17.5377 38.75 15.0995 38.265 12.8246 37.3227C10.5498 36.3805 8.48278 34.9993 6.74169 33.2582C5.00059 31.5172 3.61947 29.4502 2.6772 27.1753C1.73492 24.9005 1.24994 22.4623 1.24994 20C1.24994 15.0272 3.22538 10.2581 6.74169 6.74175C10.258 3.22544 15.0271 1.25 19.9999 1.25C24.9727 1.25 29.7419 3.22544 33.2582 6.74175C36.7745 10.2581 38.7499 15.0272 38.7499 20ZM15.3124 15.3125C15.3124 16.175 14.9624 16.875 14.5312 16.875C14.0999 16.875 13.7499 16.175 13.7499 15.3125C13.7499 14.45 14.0999 13.75 14.5312 13.75C14.9624 13.75 15.3124 14.45 15.3124 15.3125ZM14.5312 15.3125H14.5479V15.3438H14.5312V15.3125ZM26.2499 15.3125C26.2499 16.175 25.8999 16.875 25.4687 16.875C25.0374 16.875 24.6874 16.175 24.6874 15.3125C24.6874 14.45 25.0374 13.75 25.4687 13.75C25.8999 13.75 26.2499 14.45 26.2499 15.3125ZM25.4687 15.3125H25.4854V15.3438H25.4687V15.3125Z"
        stroke="white" stroke-width="1.5" stroke-linecap="round" stroke-linejoin="round" />
</svg>