<svg width="78" height="78" viewBox="0 0 78 78" fill="none" xmlns="http://www.w3.org/2000/svg">
    <rect width="78" height="78" rx="10" fill="#F6DE05" fill-opacity="0.2" />
    <path
        d="M60.875 54.6255H57.75V40.563L58.207 41.02C58.5007 41.3132 58.8989 41.4777 59.3139 41.4774C59.7289 41.477 60.1267 41.3118 60.4199 41.0181C60.7131 40.7244 60.8776 40.3262 60.8773 39.9112C60.8769 39.4962 60.7117 39.0984 60.418 38.8052L41.209 19.6021C40.623 19.0165 39.8284 18.6875 39 18.6875C38.1716 18.6875 37.377 19.0165 36.791 19.6021L17.582 38.8052C17.2891 39.0984 17.1246 39.4959 17.1248 39.9104C17.125 40.3248 17.2898 40.7222 17.583 41.0152C17.8762 41.3081 18.2737 41.4725 18.6882 41.4724C19.1026 41.4722 19.5 41.3074 19.793 41.0142L20.25 40.563V54.6255H17.125C16.7106 54.6255 16.3132 54.7901 16.0201 55.0831C15.7271 55.3762 15.5625 55.7736 15.5625 56.188C15.5625 56.6024 15.7271 56.9998 16.0201 57.2929C16.3132 57.5859 16.7106 57.7505 17.125 57.7505H60.875C61.2894 57.7505 61.6868 57.5859 61.9799 57.2929C62.2729 56.9998 62.4375 56.6024 62.4375 56.188C62.4375 55.7736 62.2729 55.3762 61.9799 55.0831C61.6868 54.7901 61.2894 54.6255 60.875 54.6255ZM23.375 37.438L39 21.813L54.625 37.438V54.6255H45.25V43.688C45.25 43.2736 45.0854 42.8762 44.7924 42.5831C44.4993 42.2901 44.1019 42.1255 43.6875 42.1255H34.3125C33.8981 42.1255 33.5007 42.2901 33.2076 42.5831C32.9146 42.8762 32.75 43.2736 32.75 43.688V54.6255H23.375V37.438ZM42.125 54.6255H35.875V45.2505H42.125V54.6255Z"
        fill="#EDE91D" />
</svg>