<svg width="21" height="21" viewBox="0 0 21 21" fill="none" xmlns="http://www.w3.org/2000/svg">
    <path
        d="M19.3594 17.0625C19.3594 17.3236 19.2557 17.574 19.0711 17.7586C18.8865 17.9432 18.6361 18.0469 18.375 18.0469H2.625C2.36393 18.0469 2.11355 17.9432 1.92894 17.7586C1.74434 17.574 1.64062 17.3236 1.64062 17.0625V3.9375C1.64062 3.67643 1.74434 3.42605 1.92894 3.24144C2.11355 3.05684 2.36393 2.95313 2.625 2.95312C2.88607 2.95312 3.13645 3.05684 3.32106 3.24144C3.50566 3.42605 3.60938 3.67643 3.60938 3.9375V12.0586L7.17856 8.48859C7.27001 8.39682 7.37867 8.32401 7.49833 8.27433C7.61798 8.22464 7.74626 8.19907 7.87582 8.19907C8.00538 8.19907 8.13366 8.22464 8.25331 8.27433C8.37297 8.32401 8.48163 8.39682 8.57309 8.48859L10.5 10.418L14.0273 6.89062H13.125C12.8639 6.89062 12.6135 6.78691 12.4289 6.60231C12.2443 6.4177 12.1406 6.16732 12.1406 5.90625C12.1406 5.64518 12.2443 5.3948 12.4289 5.21019C12.6135 5.02559 12.8639 4.92188 13.125 4.92188H16.4062C16.6673 4.92188 16.9177 5.02559 17.1023 5.21019C17.2869 5.3948 17.3906 5.64518 17.3906 5.90625V9.1875C17.3906 9.44857 17.2869 9.69895 17.1023 9.88356C16.9177 10.0682 16.6673 10.1719 16.4062 10.1719C16.1452 10.1719 15.8948 10.0682 15.7102 9.88356C15.5256 9.69895 15.4219 9.44857 15.4219 9.1875V8.28516L11.1964 12.5114C11.105 12.6032 10.9963 12.676 10.8767 12.7257C10.757 12.7754 10.6287 12.8009 10.4992 12.8009C10.3696 12.8009 10.2413 12.7754 10.1217 12.7257C10.002 12.676 9.89337 12.6032 9.80191 12.5114L7.875 10.582L3.60938 14.8477V16.0781H18.375C18.6361 16.0781 18.8865 16.1818 19.0711 16.3664C19.2557 16.551 19.3594 16.8014 19.3594 17.0625Z"
        fill="#05F691" />
</svg>