<svg width="20" height="21" viewBox="0 0 20 21" fill="none" xmlns="http://www.w3.org/2000/svg">
    <g clip-path="url(#clip0_955_16600)">
        <path
            d="M10 0.330078C9.59197 0.330078 9.20066 0.492166 8.91214 0.780683C8.62362 1.0692 8.46154 1.46051 8.46154 1.86854V9.56085C8.46154 9.96887 8.62362 10.3602 8.91214 10.6487C9.20066 10.9372 9.59197 11.0993 10 11.0993C10.408 11.0993 10.7993 10.9372 11.0879 10.6487C11.3764 10.3602 11.5385 9.96887 11.5385 9.56085V1.86854C11.5385 1.46051 11.3764 1.0692 11.0879 0.780683C10.7993 0.492166 10.408 0.330078 10 0.330078ZM4.49538 2.32546C4.27346 2.3535 4.06447 2.44543 3.89384 2.59008C2.72393 3.51238 1.77862 4.68821 1.12917 6.02894C0.479728 7.36967 0.143083 8.84033 0.144613 10.3301C0.144613 15.7593 4.56923 20.1862 10 20.1862C15.4308 20.1862 19.8561 15.7593 19.8561 10.3301C19.8561 7.197 18.3931 4.39392 16.1061 2.58931C15.9878 2.49461 15.8519 2.42415 15.7063 2.38196C15.5606 2.33977 15.4081 2.32668 15.2574 2.34343C15.1068 2.36018 14.9609 2.40645 14.8281 2.47958C14.6953 2.55272 14.5782 2.6513 14.4835 2.76969C14.3888 2.88809 14.3183 3.02397 14.2761 3.16959C14.2339 3.31521 14.2208 3.46772 14.2376 3.6184C14.2543 3.76908 14.3006 3.91499 14.3737 4.04779C14.4469 4.18059 14.5455 4.29768 14.6638 4.39239C15.5634 5.0986 16.2906 6.00016 16.7903 7.02885C17.2901 8.05754 17.5493 9.18642 17.5485 10.3301C17.5509 11.322 17.3573 12.3047 16.9788 13.2216C16.6003 14.1385 16.0444 14.9717 15.343 15.6731C14.6416 16.3745 13.8085 16.9304 12.8915 17.3089C11.9746 17.6874 10.992 17.881 10 17.8785C9.00804 17.881 8.02537 17.6874 7.10845 17.3089C6.19153 16.9304 5.35842 16.3745 4.657 15.6731C3.95557 14.9717 3.39965 14.1385 3.02117 13.2216C2.64269 12.3047 2.4491 11.322 2.45154 10.3301C2.45089 9.18646 2.71024 8.05765 3.20997 7.029C3.70971 6.00034 4.43675 5.09875 5.33615 4.39239C5.53986 4.23938 5.6872 4.02325 5.75519 3.77771C5.82318 3.53217 5.80799 3.27104 5.71199 3.03504C5.61599 2.79905 5.44459 2.60146 5.22451 2.4731C5.00443 2.34474 4.74806 2.29283 4.49538 2.32546Z"
            fill="#FF4B4B" />
    </g>
    <defs>
        <clipPath id="clip0_955_16600">
            <rect width="20" height="20" fill="white" transform="translate(0 0.330078)" />
        </clipPath>
    </defs>
</svg>