<svg width="26" height="26" viewBox="0 0 26 26" fill="none" xmlns="http://www.w3.org/2000/svg">
    <path
        d="M9.75 17.3332L9.75 19.4998C9.75 20.0745 9.97828 20.6256 10.3846 21.0319C10.7909 21.4382 11.342 21.6665 11.9167 21.6665L19.5 21.6665C20.0746 21.6665 20.6257 21.4382 21.0321 21.0319C21.4384 20.6256 21.6667 20.0745 21.6667 19.4998L21.6667 6.49984C21.6667 5.9252 21.4384 5.3741 21.0321 4.96777C20.6257 4.56144 20.0746 4.33317 19.5 4.33317L11.9167 4.33317C11.342 4.33317 10.7909 4.56144 10.3846 4.96777C9.97828 5.3741 9.75 5.9252 9.75 6.49984L9.75 8.6665"
        stroke="#05F691" stroke-width="2" stroke-linecap="round" stroke-linejoin="round" />
    <path d="M3.25001 13L17.3333 13M17.3333 13L14.0833 16.25M17.3333 13L14.0833 9.75" stroke="#05F691" stroke-width="2"
        stroke-linecap="round" stroke-linejoin="round" />
</svg>