<svg width="24" height="25" viewBox="0 0 24 25" fill="none" xmlns="http://www.w3.org/2000/svg">
    <path
        d="M9 13.3301H19L15.55 8.83008L13.25 11.8301L11.7 9.83008L9 13.3301ZM3 21.3301C2.45 21.3301 1.97933 21.1344 1.588 20.7431C1.19667 20.3517 1.00067 19.8807 1 19.3301V6.33008H3V19.3301H20V21.3301H3ZM7 17.3301C6.45 17.3301 5.97933 17.1344 5.588 16.7431C5.19667 16.3517 5.00067 15.8807 5 15.3301V4.33008C5 3.78008 5.196 3.30941 5.588 2.91808C5.98 2.52674 6.45067 2.33074 7 2.33008H12L14 4.33008H21C21.55 4.33008 22.021 4.52608 22.413 4.91808C22.805 5.31008 23.0007 5.78074 23 6.33008V15.3301C23 15.8801 22.8043 16.3511 22.413 16.7431C22.0217 17.1351 21.5507 17.3307 21 17.3301H7ZM7 15.3301H21V6.33008H13.175L11.175 4.33008H7V15.3301Z"
        fill="#05F691" />
</svg>