<svg width="26" height="26" viewBox="0 0 26 26" fill="none" xmlns="http://www.w3.org/2000/svg">
    <path
        d="M6.49999 23.8335C5.90416 23.8335 5.39427 23.6215 4.97033 23.1976C4.54638 22.7736 4.33405 22.2634 4.33333 21.6668V10.8335C4.33333 10.2377 4.54566 9.72777 4.97033 9.30383C5.39499 8.87989 5.90488 8.66755 6.49999 8.66683H7.58333V6.50016C7.58333 5.00155 8.11163 3.7243 9.16824 2.66841C10.2249 1.61252 11.5021 1.08422 13 1.0835C14.4979 1.08277 15.7755 1.61108 16.8328 2.66841C17.8902 3.72575 18.4181 5.003 18.4167 6.50016V8.66683H19.5C20.0958 8.66683 20.6061 8.87916 21.0307 9.30383C21.4554 9.7285 21.6674 10.2384 21.6667 10.8335V21.6668C21.6667 22.2627 21.4547 22.7729 21.0307 23.1976C20.6068 23.6222 20.0965 23.8342 19.5 23.8335H6.49999ZM6.49999 21.6668H19.5V10.8335H6.49999V21.6668ZM13 18.4168C13.5958 18.4168 14.1061 18.2049 14.5307 17.7809C14.9554 17.357 15.1674 16.8467 15.1667 16.2502C15.1659 15.6536 14.954 15.1437 14.5307 14.7205C14.1075 14.2973 13.5973 14.0849 13 14.0835C12.4027 14.0821 11.8928 14.2944 11.4703 14.7205C11.0478 15.1466 10.8355 15.6565 10.8333 16.2502C10.8312 16.8438 11.0435 17.3541 11.4703 17.7809C11.8972 18.2077 12.4071 18.4197 13 18.4168ZM9.74999 8.66683H16.25V6.50016C16.25 5.59739 15.934 4.83002 15.3021 4.19808C14.6701 3.56614 13.9028 3.25016 13 3.25016C12.0972 3.25016 11.3299 3.56614 10.6979 4.19808C10.066 4.83002 9.74999 5.59739 9.74999 6.50016V8.66683Z"
        fill="#05F691" />
</svg>