<svg width="24" height="24" viewBox="0 0 24 24" fill="none" xmlns="http://www.w3.org/2000/svg">
    <g clip-path="url(#clip0_955_16571)">
        <path
            d="M12 0C12.351 0.000113853 12.7018 0.0156288 13.0515 0.0465C14.166 0.1425 14.985 0.9675 15.24 1.935L15.672 3.5955C15.699 3.6945 15.7905 3.8325 15.99 3.9315C16.337 4.1025 16.671 4.2955 16.992 4.5105C17.1765 4.6335 17.3415 4.6455 17.4405 4.617L19.095 4.1625C20.061 3.8985 21.183 4.194 21.825 5.1075C22.231 5.6855 22.583 6.2945 22.881 6.9345C23.3535 7.947 23.0475 9.0675 22.335 9.771L21.114 10.98C21.0405 11.052 20.967 11.2005 20.982 11.421C21.006 11.807 21.006 12.193 20.982 12.579C20.967 12.7995 21.039 12.948 21.114 13.02L22.335 14.229C23.0475 14.9325 23.3535 16.053 22.881 17.0655C22.5833 17.7038 22.2299 18.3147 21.825 18.891C21.183 19.806 20.061 20.1015 19.095 19.836L17.442 19.383C17.3415 19.3545 17.1765 19.3665 16.992 19.4895C16.6708 19.7038 16.3361 19.8972 15.99 20.0685C15.7905 20.1675 15.699 20.3055 15.6735 20.4045L15.2385 22.0635C14.9865 23.0325 14.166 23.8575 13.0515 23.9535C12.3518 24.015 11.6481 24.015 10.9485 23.9535C9.834 23.8575 9.015 23.0325 8.7615 22.0635L8.328 20.4045C8.301 20.3055 8.2095 20.1675 8.01 20.0685C7.66392 19.8972 7.32923 19.7038 7.008 19.4895C6.8235 19.3665 6.6585 19.3545 6.5595 19.383L4.905 19.8375C3.939 20.1015 2.817 19.806 2.175 18.8925C1.77003 18.3157 1.41666 17.7043 1.119 17.0655C0.646498 16.053 0.952498 14.9325 1.6635 14.229L2.886 13.02C2.961 12.948 3.033 12.7995 3.018 12.579C2.99314 12.1934 2.99314 11.8066 3.018 11.421C3.033 11.2005 2.961 11.052 2.886 10.98L1.6635 9.771C0.952498 9.0675 0.646498 7.947 1.119 6.9345C1.41674 6.29619 1.77011 5.68533 2.175 5.109C2.817 4.194 3.939 3.8985 4.905 4.164L6.558 4.617C6.6585 4.6455 6.8235 4.6335 7.008 4.5105C7.329 4.2955 7.663 4.1025 8.01 3.9315C8.2095 3.8325 8.301 3.6945 8.3265 3.5955L8.7615 1.9365C9.0135 0.9675 9.834 0.1425 10.9485 0.045C11.2955 0.015 11.646 0 12 0ZM11.1435 2.2875C11.0895 2.292 10.9815 2.3415 10.938 2.5065L10.5045 4.164C10.284 5.0055 9.681 5.6145 9.0075 5.9475C8.7475 6.0775 8.4975 6.2225 8.2575 6.3825C7.632 6.7995 6.8025 7.017 5.964 6.7875L4.3095 6.333C4.146 6.288 4.047 6.357 4.017 6.4005C3.687 6.8705 3.4005 7.3655 3.1575 7.8855C3.1365 7.932 3.126 8.0505 3.246 8.1705L4.4685 9.3795C5.085 9.9885 5.3115 10.815 5.2635 11.5635C5.24655 11.8543 5.24655 12.1457 5.2635 12.4365C5.3115 13.185 5.085 14.0115 4.4685 14.6205L3.246 15.8295C3.1245 15.9495 3.1365 16.068 3.1575 16.1145C3.4005 16.6345 3.687 17.129 4.017 17.598C4.047 17.643 4.1445 17.712 4.3095 17.667L5.9625 17.2125C6.8025 16.983 7.632 17.2005 8.2575 17.6175C8.4995 17.7775 8.75 17.9225 9.009 18.0525C9.6795 18.3855 10.284 18.996 10.5045 19.836L10.938 21.4935C10.9815 21.657 11.0895 21.708 11.1435 21.7125C11.7134 21.762 12.2866 21.762 12.8565 21.7125C12.9105 21.708 13.0185 21.6585 13.062 21.4935L13.4955 19.836C13.716 18.9945 14.319 18.3855 14.9925 18.0525C15.2525 17.9225 15.5025 17.7775 15.7425 17.6175C16.368 17.2005 17.1975 16.983 18.036 17.2125L19.6905 17.667C19.854 17.7105 19.953 17.643 19.983 17.5995C20.313 17.1295 20.5995 16.6345 20.8425 16.1145C20.8635 16.068 20.874 15.9495 20.754 15.8295L19.5315 14.6205C18.915 14.0115 18.6885 13.185 18.7365 12.4365C18.7534 12.1457 18.7534 11.8543 18.7365 11.5635C18.6885 10.815 18.915 9.9885 19.5315 9.3795L20.754 8.1705C20.8755 8.0505 20.8635 7.932 20.8425 7.8855C20.6001 7.36672 20.3125 6.8703 19.983 6.402C19.953 6.357 19.8555 6.288 19.6905 6.333L18.0375 6.7875C17.1975 7.017 16.368 6.7995 15.7425 6.3825C15.5028 6.21954 15.2517 6.07416 14.991 5.9475C14.3205 5.6145 13.716 5.004 13.4955 4.164L13.062 2.5065C13.0185 2.3415 12.9105 2.292 12.8565 2.2875C12.2866 2.23801 11.7134 2.23801 11.1435 2.2875ZM16.5 12C16.5 13.1935 16.0259 14.3381 15.182 15.182C14.3381 16.0259 13.1935 16.5 12 16.5C10.8065 16.5 9.66193 16.0259 8.81802 15.182C7.9741 14.3381 7.5 13.1935 7.5 12C7.5 10.8065 7.9741 9.66193 8.81802 8.81802C9.66193 7.97411 10.8065 7.5 12 7.5C13.1935 7.5 14.3381 7.97411 15.182 8.81802C16.0259 9.66193 16.5 10.8065 16.5 12ZM14.25 12C14.2498 11.4031 14.0125 10.8307 13.5902 10.4087C13.168 9.98674 12.5954 9.7498 11.9985 9.75C11.4016 9.7502 10.8292 9.98752 10.4072 10.4098C9.98524 10.832 9.7483 11.4046 9.7485 12.0015C9.7487 12.5984 9.98602 13.1708 10.4083 13.5928C10.6173 13.8017 10.8655 13.9674 11.1386 14.0805C11.4117 14.1935 11.7044 14.2516 12 14.2515C12.2956 14.2514 12.5882 14.1931 12.8613 14.0799C13.1343 13.9667 13.3824 13.8008 13.5913 13.5917C13.8002 13.3827 13.9659 13.1345 14.079 12.8614C14.192 12.5883 14.2501 12.2956 14.25 12Z"
            fill="#05F691" />
    </g>
    <defs>
        <clipPath id="clip0_955_16571">
            <rect width="24" height="24" fill="white" />
        </clipPath>
    </defs>
</svg>