<svg width="24" height="25" viewBox="0 0 24 25" fill="none" xmlns="http://www.w3.org/2000/svg">
    <path
        d="M12 2.33008C17.523 2.33008 22 6.80708 22 12.3301C22 17.8531 17.523 22.3301 12 22.3301C6.477 22.3301 2 17.8531 2 12.3301C2 6.80708 6.477 2.33008 12 2.33008ZM12 4.33008C9.87827 4.33008 7.84344 5.17293 6.34315 6.67322C4.84285 8.17351 4 10.2083 4 12.3301C4 14.4518 4.84285 16.4866 6.34315 17.9869C7.84344 19.4872 9.87827 20.3301 12 20.3301C14.1217 20.3301 16.1566 19.4872 17.6569 17.9869C19.1571 16.4866 20 14.4518 20 12.3301C20 10.2083 19.1571 8.17351 17.6569 6.67322C16.1566 5.17293 14.1217 4.33008 12 4.33008ZM12 16.3301C12.2652 16.3301 12.5196 16.4354 12.7071 16.623C12.8946 16.8105 13 17.0649 13 17.3301C13 17.5953 12.8946 17.8496 12.7071 18.0372C12.5196 18.2247 12.2652 18.3301 12 18.3301C11.7348 18.3301 11.4804 18.2247 11.2929 18.0372C11.1054 17.8496 11 17.5953 11 17.3301C11 17.0649 11.1054 16.8105 11.2929 16.623C11.4804 16.4354 11.7348 16.3301 12 16.3301ZM12 6.83008C12.8423 6.8301 13.6583 7.12343 14.3078 7.65968C14.9573 8.19592 15.3998 8.94161 15.5593 9.76866C15.7188 10.5957 15.5853 11.4525 15.1818 12.1918C14.7783 12.9311 14.1299 13.5068 13.348 13.8201C13.2328 13.8638 13.1286 13.9324 13.043 14.0211C12.999 14.0711 12.992 14.1351 12.993 14.2011L13 14.3301C12.9997 14.585 12.9021 14.8301 12.7272 15.0154C12.5522 15.2008 12.313 15.3123 12.0586 15.3273C11.8042 15.3422 11.5536 15.2594 11.3582 15.0958C11.1627 14.9322 11.0371 14.7002 11.007 14.4471L11 14.3301V14.0801C11 12.9271 11.93 12.2351 12.604 11.9641C12.8783 11.8545 13.1176 11.6723 13.2962 11.4371C13.4748 11.2018 13.5859 10.9223 13.6176 10.6286C13.6493 10.335 13.6004 10.0382 13.4762 9.77022C13.352 9.50223 13.1571 9.27314 12.9125 9.10756C12.6679 8.94197 12.3829 8.84613 12.0879 8.83035C11.793 8.81456 11.4993 8.87942 11.2384 9.01795C10.9775 9.15648 10.7593 9.36346 10.6072 9.61666C10.4551 9.86985 10.3748 10.1597 10.375 10.4551C10.375 10.7203 10.2696 10.9746 10.0821 11.1622C9.89457 11.3497 9.64022 11.4551 9.375 11.4551C9.10978 11.4551 8.85543 11.3497 8.66789 11.1622C8.48036 10.9746 8.375 10.7203 8.375 10.4551C8.375 9.49367 8.75692 8.57164 9.43674 7.89182C10.1166 7.212 11.0386 6.83008 12 6.83008Z"
        fill="#05F691" />
</svg>