<svg width="26" height="27" viewBox="0 0 26 27" fill="none" xmlns="http://www.w3.org/2000/svg">
<g id="entypo-social:facebook">
<path id="Vector" d="M22.1 1.65918H3.89999C2.46999 1.65918 1.29999 2.82918 1.29999 4.25918V22.4592C1.29999 23.8905 2.46999 25.0592 3.89999 25.0592H13V15.9592H10.4V12.7417H13V10.0767C13 7.26348 14.5756 5.28748 17.8958 5.28748L20.2397 5.29008V8.67658H18.6836C17.3914 8.67658 16.9 9.64638 16.9 10.546V12.743H20.2384L19.5 15.9592H16.9V25.0592H22.1C23.53 25.0592 24.7 23.8905 24.7 22.4592V4.25918C24.7 2.82918 23.53 1.65918 22.1 1.65918Z" fill="#8C95A3"/>
</g>
</svg>
