<svg width="24" height="25" viewBox="0 0 24 25" fill="none" xmlns="http://www.w3.org/2000/svg">
<g id="ri:instagram-fill">
<path id="Vector" d="M13.028 2.35938C14.153 2.36238 14.724 2.36838 15.217 2.38238L15.411 2.38937C15.635 2.39737 15.856 2.40737 16.123 2.41937C17.187 2.46937 17.913 2.63738 18.55 2.88438C19.21 3.13838 19.766 3.48237 20.322 4.03737C20.8305 4.53727 21.224 5.14196 21.475 5.80937C21.722 6.44637 21.89 7.17237 21.94 8.23737C21.952 8.50337 21.962 8.72438 21.97 8.94938L21.976 9.14338C21.991 9.63538 21.997 10.2064 21.999 11.3314L22 12.0774V13.3874C22.0025 14.1168 21.9948 14.8462 21.977 15.5754L21.971 15.7694C21.963 15.9944 21.953 16.2154 21.941 16.4814C21.891 17.5464 21.721 18.2714 21.475 18.9094C21.2247 19.5772 20.8312 20.182 20.322 20.6814C19.822 21.1897 19.2173 21.5831 18.55 21.8344C17.913 22.0814 17.187 22.2494 16.123 22.2994C15.8857 22.3105 15.6484 22.3205 15.411 22.3294L15.217 22.3354C14.724 22.3494 14.153 22.3564 13.028 22.3584L12.282 22.3594H10.973C10.2433 22.3619 9.51355 22.3542 8.78403 22.3364L8.59003 22.3304C8.35264 22.3214 8.1153 22.3111 7.87803 22.2994C6.81403 22.2494 6.08803 22.0814 5.45003 21.8344C4.7827 21.5837 4.17824 21.1902 3.67903 20.6814C3.17007 20.1817 2.77625 19.5769 2.52503 18.9094C2.27803 18.2724 2.11003 17.5464 2.06003 16.4814C2.04889 16.2441 2.03889 16.0068 2.03003 15.7694L2.02503 15.5754C2.0066 14.8462 1.99827 14.1168 2.00003 13.3874V11.3314C1.99724 10.602 2.00457 9.87257 2.02203 9.14338L2.02903 8.94938C2.03703 8.72438 2.04703 8.50337 2.05903 8.23737C2.10903 7.17237 2.27703 6.44737 2.52403 5.80937C2.77514 5.14128 3.16975 4.5364 3.68003 4.03737C4.17912 3.52885 4.78317 3.13536 5.45003 2.88438C6.08803 2.63738 6.81303 2.46937 7.87803 2.41937C8.14403 2.40737 8.36603 2.39737 8.59003 2.38937L8.78403 2.38337C9.51322 2.36561 10.2426 2.35794 10.972 2.36037L13.028 2.35938ZM12 7.35938C10.6739 7.35938 9.40218 7.88616 8.46449 8.82384C7.52681 9.76152 7.00003 11.0333 7.00003 12.3594C7.00003 13.6855 7.52681 14.9572 8.46449 15.8949C9.40218 16.8326 10.6739 17.3594 12 17.3594C13.3261 17.3594 14.5979 16.8326 15.5356 15.8949C16.4732 14.9572 17 13.6855 17 12.3594C17 11.0333 16.4732 9.76152 15.5356 8.82384C14.5979 7.88616 13.3261 7.35938 12 7.35938ZM12 9.35938C12.394 9.35931 12.7841 9.43684 13.1481 9.58755C13.5121 9.73825 13.8429 9.95917 14.1215 10.2377C14.4001 10.5162 14.6212 10.8469 14.772 11.2109C14.9228 11.5748 15.0005 11.9649 15.0005 12.3589C15.0006 12.7528 14.9231 13.143 14.7724 13.507C14.6217 13.871 14.4007 14.2017 14.1222 14.4803C13.8437 14.759 13.513 14.98 13.149 15.1308C12.7851 15.2816 12.395 15.3593 12.001 15.3594C11.2054 15.3594 10.4423 15.0433 9.87971 14.4807C9.3171 13.9181 9.00103 13.155 9.00103 12.3594C9.00103 11.5637 9.3171 10.8007 9.87971 10.2381C10.4423 9.67545 11.2054 9.35938 12.001 9.35938M17.251 5.85938C16.9195 5.85938 16.6016 5.99107 16.3671 6.22549C16.1327 6.45991 16.001 6.77785 16.001 7.10938C16.001 7.4409 16.1327 7.75884 16.3671 7.99326C16.6016 8.22768 16.9195 8.35938 17.251 8.35938C17.5825 8.35938 17.9005 8.22768 18.1349 7.99326C18.3693 7.75884 18.501 7.4409 18.501 7.10938C18.501 6.77785 18.3693 6.45991 18.1349 6.22549C17.9005 5.99107 17.5825 5.85938 17.251 5.85938Z" fill="#8C95A3"/>
</g>
</svg>
