<svg width="24" height="25" viewBox="0 0 24 25" fill="none" xmlns="http://www.w3.org/2000/svg">
<g id="Group">
<path id="Vector" d="M22.2234 0.359375H1.77187C0.792187 0.359375 0 1.13281 0 2.08906V22.625C0 23.5812 0.792187 24.3594 1.77187 24.3594H22.2234C23.2031 24.3594 24 23.5813 24 22.6297V2.08906C24 1.13281 23.2031 0.359375 22.2234 0.359375ZM7.12031 20.8109H3.55781V9.35469H7.12031V20.8109ZM5.33906 7.79375C4.19531 7.79375 3.27188 6.87031 3.27188 5.73125C3.27188 4.59219 4.19531 3.66875 5.33906 3.66875C6.47813 3.66875 7.40156 4.59219 7.40156 5.73125C7.40156 6.86562 6.47813 7.79375 5.33906 7.79375ZM20.4516 20.8109H16.8937V15.2422C16.8937 13.9156 16.8703 12.2047 15.0422 12.2047C13.1906 12.2047 12.9094 13.6531 12.9094 15.1484V20.8109H9.35625V9.35469H12.7687V10.9203H12.8156C13.2891 10.0203 14.4516 9.06875 16.1813 9.06875C19.7859 9.06875 20.4516 11.4406 20.4516 14.525V20.8109Z" fill="#98A2B3"/>
</g>
</svg>
