<svg width="24" height="25" viewBox="0 0 24 25" fill="none" xmlns="http://www.w3.org/2000/svg">
<g id="ri:youtube-fill">
<path id="Vector" d="M12.244 4.35938C12.778 4.36238 14.114 4.37537 15.534 4.43237L16.038 4.45437C17.467 4.52137 18.895 4.63737 19.604 4.83437C20.549 5.10037 21.291 5.87438 21.542 6.85638C21.942 8.41638 21.992 11.4584 21.998 12.1954L21.999 12.3474V12.5214C21.992 13.2584 21.942 16.3014 21.542 17.8604C21.288 18.8454 20.545 19.6204 19.604 19.8824C18.895 20.0794 17.467 20.1954 16.038 20.2624L15.534 20.2854C14.114 20.3414 12.778 20.3554 12.244 20.3574L12.009 20.3584H11.754C10.624 20.3514 5.898 20.3004 4.394 19.8824C3.45 19.6164 2.707 18.8424 2.456 17.8604C2.056 16.3004 2.006 13.2584 2 12.5214V12.1954C2.006 11.4584 2.056 8.41538 2.456 6.85638C2.71 5.87138 3.453 5.09637 4.395 4.83537C5.898 4.41637 10.625 4.36538 11.755 4.35938H12.244ZM9.999 8.85938V15.8594L15.999 12.3594L9.999 8.85938Z" fill="#8C95A3"/>
</g>
</svg>
