<svg width="20" height="20" viewBox="0 0 20 20" fill="none" xmlns="http://www.w3.org/2000/svg">
<g id="Icon">
<path id="Icon_2" d="M11.2905 5.59272C11.0569 5.66342 10.714 5.72296 10.2393 5.76389C10.2807 3.65404 11.3658 2.16934 13.5549 1.66699C13.9053 3.21496 12.5715 5.16852 11.2905 5.59272ZM15.8607 8.29794C16.1018 7.94816 16.4862 7.55744 17.0136 7.11836C16.1734 6.09134 15.2014 5.46992 13.8073 5.46992C12.4735 5.46992 11.3507 6.14716 10.5294 6.14716C9.83234 6.14716 8.57392 5.54807 7.34564 5.54807C4.7233 5.54807 3.33301 8.08211 3.33301 10.7204C3.33301 13.6526 5.58234 18.3337 7.86182 18.3337C8.75854 18.3337 9.56483 17.6639 10.6311 17.6639C11.735 17.6639 12.6205 18.3039 13.6566 18.3039C15.3897 18.3039 16.9948 15.4201 17.4997 13.8498C15.7364 13.3177 14.3197 10.4934 15.8607 8.29794Z" fill="rgb(30 41 59)"/>
</g>
</svg>
