<svg width="37" height="37" viewBox="0 0 37 37" fill="none" xmlns="http://www.w3.org/2000/svg">
<g id="carbon:security">
<path id="Vector" d="M16.1875 19.1822L13.1928 16.1875L11.5625 17.8178L16.1875 22.4428L25.4375 13.1928L23.8072 11.5625L16.1875 19.1822Z" fill="white"/>
<path id="Vector_2" d="M18.5 34.6875L11.359 30.88C9.32307 29.7971 7.62051 28.1802 6.43412 26.2028C5.24772 24.2254 4.62231 21.9622 4.62501 19.6562V4.625C4.62501 4.01169 4.86865 3.42349 5.30232 2.98982C5.736 2.55614 6.3242 2.3125 6.93751 2.3125H30.0625C30.6758 2.3125 31.264 2.55614 31.6977 2.98982C32.1314 3.42349 32.375 4.01169 32.375 4.625V19.6562C32.3777 21.9622 31.7523 24.2254 30.5659 26.2028C29.3795 28.1802 27.6769 29.7971 25.641 30.88L18.5 34.6875ZM6.93751 4.625V19.6562C6.93622 21.5429 7.44843 23.3943 8.41922 25.012C9.39001 26.6297 10.7828 27.9527 12.4482 28.8392L18.5 32.0663L24.5518 28.8403C26.2174 27.9538 27.6103 26.6306 28.5811 25.0127C29.5519 23.3948 30.064 21.5431 30.0625 19.6562V4.625H6.93751Z" fill="white"/>
</g>
</svg>
