<svg width="36" height="34" viewBox="0 0 36 34" fill="none" xmlns="http://www.w3.org/2000/svg">
<path d="M0 17C0 7.61116 7.61116 0 17 0H19C28.3888 0 36 7.61116 36 17C36 26.3888 28.3888 34 19 34H17C7.61116 34 0 26.3888 0 17Z" fill="url(#paint0_linear_321_45225)"/>
<path fill-rule="evenodd" clip-rule="evenodd" d="M26.546 10.1106C26.8272 10.3919 26.9852 10.7733 26.9852 11.1711C26.9852 11.5688 26.8272 11.9503 26.546 12.2316L15.303 23.4746C15.1544 23.6232 14.978 23.7411 14.7839 23.8215C14.5898 23.9019 14.3817 23.9433 14.1715 23.9433C13.9614 23.9433 13.7533 23.9019 13.5591 23.8215C13.365 23.7411 13.1886 23.6232 13.04 23.4746L7.45403 17.8896C7.31076 17.7512 7.19649 17.5857 7.11787 17.4027C7.03926 17.2197 6.99788 17.0228 6.99615 16.8237C6.99442 16.6245 7.03237 16.427 7.10779 16.2426C7.18322 16.0583 7.29459 15.8908 7.43543 15.75C7.57627 15.6091 7.74375 15.4978 7.92809 15.4223C8.11244 15.3469 8.30996 15.309 8.50913 15.3107C8.7083 15.3124 8.90513 15.3538 9.08813 15.4324C9.27114 15.511 9.43666 15.6253 9.57503 15.7686L14.171 20.3646L24.424 10.1106C24.5633 9.97119 24.7287 9.86061 24.9108 9.78517C25.0928 9.70973 25.288 9.6709 25.485 9.6709C25.6821 9.6709 25.8772 9.70973 26.0593 9.78517C26.2413 9.86061 26.4067 9.97119 26.546 10.1106Z" fill="#152743"/>
<defs>
<linearGradient id="paint0_linear_321_45225" x1="-3.12283" y1="9.43333" x2="42.9488" y2="13.7471" gradientUnits="userSpaceOnUse">
<stop stop-color="#09B76E"/>
<stop offset="1" stop-color="#E8C016"/>
</linearGradient>
</defs>
</svg>
