<svg width="18" height="18" viewBox="0 0 18 18" fill="none" xmlns="http://www.w3.org/2000/svg">
<g id="Icon">
<path id="Path" d="M17.3181 9.37118C17.3181 8.79485 17.2714 8.21542 17.1717 7.64844H9.1748V10.9132H13.7542C13.5642 11.9662 12.9536 12.8977 12.0595 13.4896V15.6079H14.7916C16.396 14.1313 17.3181 11.9506 17.3181 9.37118Z" fill="#4285F4"/>
<path id="Path_2" d="M9.17496 17.6544C11.4616 17.6544 13.3899 16.9036 14.7949 15.6076L12.0628 13.4893C11.3027 14.0064 10.3214 14.2992 9.17807 14.2992C6.96623 14.2992 5.09084 12.807 4.41795 10.8008H1.59863V12.9846C3.03789 15.8475 5.96935 17.6544 9.17496 17.6544Z" fill="#34A853"/>
<path id="Path_3" d="M4.41436 10.801C4.05922 9.74804 4.05922 8.60785 4.41436 7.55489V5.37109H1.59816C0.395666 7.76673 0.395666 10.5892 1.59816 12.9848L4.41436 10.801Z" fill="#FBBC04"/>
<path id="Path_4" d="M9.17496 4.05298C10.3837 4.03429 11.5519 4.48911 12.4273 5.32401L14.8479 2.90344C13.3151 1.46419 11.2809 0.672915 9.17496 0.697837C5.96935 0.697837 3.03789 2.50469 1.59863 5.37073L4.41483 7.55454C5.08461 5.54519 6.96312 4.05298 9.17496 4.05298Z" fill="#EA4335"/>
</g>
</svg>
