<svg width="54" height="54" viewBox="0 0 54 54" fill="none" xmlns="http://www.w3.org/2000/svg">
<g id="Group 139">
<path id="Rectangle 41" d="M14.0283 13.3208H40.9151V41.6227H14.0283V13.3208Z" fill="white"/>
<g id="Iconly/Bold/Arrow---Left-Circle">
<g id="Arrow---Left-Circle">
<g id="Vector">
<path d="M27 2L27.6994 2.00961C41.1764 2.38041 52 13.4339 52 27C52 40.775 40.8 52 27 52C13.225 52 2 40.775 2 27C2 13.2 13.225 2 27 2ZM31.95 17C31.2 16.25 30.025 16.25 29.3 17L20.575 25.675C20.225 26.025 20.025 26.5 20.025 27C20.025 27.5 20.225 27.975 20.575 28.325L29.3 37C29.65 37.375 30.125 37.55 30.6 37.55C31.1 37.55 31.575 37.375 31.95 37C32.675 36.25 32.675 35.075 31.925 34.35L24.55 27L31.925 19.65C32.675 18.925 32.675 17.725 31.95 17Z" fill="#1C355D"/>
<path d="M27.0096 1.30007L27.0096 1.3H27C12.8389 1.3 1.3 12.8129 1.3 27C1.3 41.1616 12.8384 52.7 27 52.7C41.1871 52.7 52.7 41.1611 52.7 27C52.7 13.0537 41.5736 1.69107 27.7187 1.30988L27.7187 1.30981L27.709 1.30968L27.0096 1.30007ZM29.7936 17.4964L29.7936 17.4965L29.8033 17.4865C30.2486 17.0259 30.9737 17.0136 31.455 17.495C31.9052 17.9452 31.9053 18.6955 31.4385 19.1467L31.4384 19.1466L31.4309 19.1542L24.0559 26.5042L23.5584 27L24.0559 27.4958L31.4309 34.8458L31.4308 34.8459L31.4385 34.8533C31.8993 35.2988 31.9125 36.0272 31.4508 36.5092C31.218 36.7399 30.9273 36.85 30.6 36.85C30.2959 36.85 30.0144 36.7395 29.8117 36.5224L29.8028 36.5128L29.7936 36.5036L21.07 27.83C21.0697 27.8297 21.0694 27.8294 21.0691 27.8291C20.8494 27.609 20.725 27.3118 20.725 27C20.725 26.6882 20.8494 26.391 21.0691 26.1709C21.0694 26.1706 21.0697 26.1703 21.07 26.17L29.7936 17.4964Z" stroke="white" stroke-opacity="0.24" stroke-width="1.4"/>
</g>
</g>
</g>
</g>
</svg>
