<svg width="54" height="54" viewBox="0 0 54 54" fill="none" xmlns="http://www.w3.org/2000/svg">
<g id="Group 2131328392">
<path id="Rectangle 41" d="M39.9717 13.3208H13.0849V41.6227H39.9717V13.3208Z" fill="white"/>
<g id="Iconly/Bold/Arrow---Left-Circle">
<g id="Arrow---Left-Circle">
<g id="Vector">
<path d="M27 2L26.3006 2.00961C12.8236 2.38041 2 13.4339 2 27C2 40.775 13.2 52 27 52C40.775 52 52 40.775 52 27C52 13.2 40.775 2 27 2ZM22.05 17C22.8 16.25 23.975 16.25 24.7 17L33.425 25.675C33.775 26.025 33.975 26.5 33.975 27C33.975 27.5 33.775 27.975 33.425 28.325L24.7 37C24.35 37.375 23.875 37.55 23.4 37.55C22.9 37.55 22.425 37.375 22.05 37C21.325 36.25 21.325 35.075 22.075 34.35L29.45 27L22.075 19.65C21.325 18.925 21.325 17.725 22.05 17Z" fill="#1C355D"/>
<path d="M26.9904 1.30007L26.9904 1.3H27C41.1611 1.3 52.7 12.8129 52.7 27C52.7 41.1616 41.1616 52.7 27 52.7C12.8129 52.7 1.3 41.1611 1.3 27C1.3 13.0537 12.4264 1.69107 26.2813 1.30988L26.2813 1.30981L26.291 1.30968L26.9904 1.30007ZM24.2064 17.4964L24.2064 17.4965L24.1967 17.4865C23.7514 17.0259 23.0263 17.0136 22.545 17.495C22.0948 17.9452 22.0947 18.6955 22.5615 19.1467L22.5616 19.1466L22.5691 19.1542L29.9441 26.5042L30.4416 27L29.9441 27.4958L22.5691 34.8458L22.5692 34.8459L22.5615 34.8533C22.1007 35.2988 22.0875 36.0272 22.5492 36.5092C22.782 36.7399 23.0727 36.85 23.4 36.85C23.7041 36.85 23.9856 36.7395 24.1883 36.5224L24.1972 36.5128L24.2064 36.5036L32.93 27.83C32.9303 27.8297 32.9306 27.8294 32.9309 27.8291C33.1506 27.609 33.275 27.3118 33.275 27C33.275 26.6882 33.1506 26.391 32.9309 26.1709C32.9306 26.1706 32.9303 26.1703 32.93 26.17L24.2064 17.4964Z" stroke="white" stroke-opacity="0.24" stroke-width="1.4"/>
</g>
</g>
</g>
</g>
</svg>
