<svg width="208" height="208" viewBox="0 0 208 208" fill="none" xmlns="http://www.w3.org/2000/svg">
<g id="Group">
<path id="Vector" d="M87.4549 144.623L47.5 104.659L60.8152 91.3438L87.4549 117.974L140.716 64.7041L154.04 78.0287L87.4549 144.623Z" fill="#4DCA00"/>
<path id="Vector_2" fill-rule="evenodd" clip-rule="evenodd" d="M0.416504 104C0.416504 46.7941 46.7936 0.416992 104 0.416992C161.206 0.416992 207.583 46.7941 207.583 104C207.583 161.207 161.206 207.584 104 207.584C46.7936 207.584 0.416504 161.207 0.416504 104ZM104 188.75C92.8703 188.75 81.8498 186.558 71.5674 182.299C61.2851 178.04 51.9423 171.797 44.0725 163.928C36.2028 156.058 29.9601 146.715 25.701 136.433C21.442 126.15 19.2498 115.13 19.2498 104C19.2498 92.8708 21.442 81.8503 25.701 71.5679C29.9601 61.2856 36.2028 51.9428 44.0725 44.073C51.9423 36.2033 61.2851 29.9606 71.5674 25.7015C81.8498 21.4424 92.8703 19.2503 104 19.2503C126.477 19.2503 148.033 28.1793 163.927 44.073C179.821 59.9667 188.75 81.5232 188.75 104C188.75 126.477 179.821 148.034 163.927 163.928C148.033 179.821 126.477 188.75 104 188.75Z" fill="#4DCA00"/>
</g>
</svg>
