<svg width="18" height="21" viewBox="0 0 18 21" fill="none" xmlns="http://www.w3.org/2000/svg">
<g id="fa6-brands:square-x-twitter">
<path id="Vector" d="M2.57143 1.28613C1.15313 1.28613 0 2.43926 0 3.85756V16.7147C0 18.133 1.15313 19.2861 2.57143 19.2861H15.4286C16.8469 19.2861 18 18.133 18 16.7147V3.85756C18 2.43926 16.8469 1.28613 15.4286 1.28613H2.57143ZM14.5085 4.66113L10.3379 9.42631L15.2437 15.9111H11.4027L8.39732 11.9777L4.95402 15.9111H3.04554L7.50536 10.8125L2.80045 4.66113H6.73795L9.45804 8.25711L12.6 4.66113H14.5085ZM12.9897 14.7701L6.16339 5.74194H5.02634L11.929 14.7701H12.9857H12.9897Z" fill="#D1D5DB"/>
</g>
</svg>
