<svg width="26" height="20" viewBox="0 0 26 20" fill="none" xmlns="http://www.w3.org/2000/svg">
<path d="M5.5 20C4.125 20 2.94792 19.5104 1.96875 18.5312C0.989583 17.5521 0.5 16.375 0.5 15V5C0.5 3.625 0.989583 2.44792 1.96875 1.46875C2.94792 0.489584 4.125 0 5.5 0H20.5C21.875 0 23.0521 0.489584 24.0312 1.46875C25.0104 2.44792 25.5 3.625 25.5 5V15C25.5 16.375 25.0104 17.5521 24.0312 18.5312C23.0521 19.5104 21.875 20 20.5 20H5.5ZM5.5 5H20.5C20.9583 5 21.3958 5.05208 21.8125 5.15625C22.2292 5.26042 22.625 5.42708 23 5.65625V5C23 4.3125 22.7554 3.72417 22.2663 3.235C21.7771 2.74583 21.1883 2.50083 20.5 2.5H5.5C4.8125 2.5 4.22417 2.745 3.735 3.235C3.24583 3.725 3.00083 4.31333 3 5V5.65625C3.375 5.42708 3.77083 5.26042 4.1875 5.15625C4.60417 5.05208 5.04167 5 5.5 5ZM3.1875 9.0625L17.0938 12.4375C17.2812 12.4792 17.4688 12.4792 17.6562 12.4375C17.8438 12.3958 18.0208 12.3125 18.1875 12.1875L22.5312 8.5625C22.3021 8.25 22.0104 7.995 21.6562 7.7975C21.3021 7.6 20.9167 7.50083 20.5 7.5H5.5C4.95833 7.5 4.48458 7.64083 4.07875 7.9225C3.67292 8.20417 3.37583 8.58417 3.1875 9.0625Z" fill="#152743"/>
</svg>
